#N canvas 908 177 922 820 10;
#X obj 460 5 cnv 15 450 500 empty empty Webcam_>_Fiducial>_Paysage
20 12 0 14 -228912 -66577 0;
#X obj 470 452 pix_texture;
#X floatatom 678 380 5 0 0 0 ID - -, f 5;
#X floatatom 678 396 5 0 0 0 x - -, f 5;
#X floatatom 678 412 5 0 0 0 y - -, f 5;
#X floatatom 678 428 5 0 0 0 angle - -, f 5;
#X obj 470 101 pix_video;
#X obj 656 355 unpack 0 0 0 0;
#X obj 470 219 pix_grey;
#X obj 470 239 pix_threshold_bernsen 16 16;
#X msg 558 84 device 0;
#N canvas 166 121 570 420 device 0;
#X obj 204 60 cnv 20 20 20 empty \$0-open-canvas 0 4 10 0 16 -233017
-1 0;
#X obj 60 61 hradio 18 1 0 8 empty empty empty 0 -6 0 8 -225271 -1
-1 1;
#X obj 60 13 inlet;
#X msg 160 254 label \$1;
#X obj 160 232 makefilename %d;
#X obj 60 108 int;
#X obj 60 337 outlet;
#X obj 160 277 send \$0-open-canvas;
#X msg 130 170 device \$1;
#X obj 60 130 t b f;
#X obj 130 192 t a a;
#X obj 130 298 list prepend set;
#X obj 130 320 list trim;
#X obj 160 211 route device;
#X obj 130 116 loadbang;
#X msg 130 138 0;
#X connect 1 0 5 0;
#X connect 2 0 1 0;
#X connect 3 0 7 0;
#X connect 4 0 3 0;
#X connect 5 0 9 0;
#X connect 8 0 10 0;
#X connect 9 0 6 0;
#X connect 9 1 8 0;
#X connect 10 0 11 0;
#X connect 10 1 13 0;
#X connect 11 0 12 0;
#X connect 12 0 6 0;
#X connect 13 0 4 0;
#X connect 14 0 15 0;
#X connect 15 0 8 0;
#X coords 0 -1 1 1 165 20 1 60 60;
#X restore 558 60 pd device;
#X obj 470 474 rectangle 5.334 4;
#X obj 796 338 s fiducial;
#X obj 470 321 pix_fiducialtrack all.trees;
#X obj 470 80 gemhead 12;
#X msg 735 84 dimen 800 600;
#X obj 470 427 spigot;
#X obj 548 395 tgl 32 0 empty empty Webcam_preview -20 -10 0 10 -191407
-1 -1 1 1;
#X obj 736 39 loadbang;
#X obj 736 63 t b b b;
#X msg 842 84 device 1;
#X obj 4 5 cnv 15 450 500 empty empty Gestion_écran 20 12 0 14 -163053
-66577 0;
#X msg 114 482 create \, 1;
#X msg 191 483 destroy;
#X obj 48 460 gemwin 25;
#X msg 136 341 dimen 800 600;
#X msg 258 329 offset 0 0;
#X msg 135 321 dimen 400 300;
#X msg 259 351 offset 1024 0;
#X msg 259 380 cursor 0;
#X msg 259 398 cursor 1;
#X msg 136 364 dimen 1024 768;
#X msg 260 429 border 0;
#X msg 260 447 border 1;
#X obj 48 53 tgl 42 0 empty empty VP 17 -7 0 10 -4034 -1 -1 0 1;
#X obj 92 198 tgl 32 0 empty empty Test 17 -7 0 10 -4034 -1 -1 1 1
;
#X obj 48 103 sel 0 1;
#X msg 71 128 offset 1600 0 \, dimen 1280 960 \, border 0 \, create
\, 1;
#X msg 48 153 0 \, destroy;
#X obj 92 239 sel 0 1;
#X msg 92 289 0 \, destroy;
#X msg 115 264 offset 0 0 \, dimen 800 600 \, border 1 \, create \,
1;
#X obj 3 510 cnv 15 910 300 empty empty Sons 20 12 0 14 -256751 -66577
0;
#X text 218 518 Sampler: num du fichier | loop 0/1 | decalage X | decalage
Y;
#X obj 756 555 loadbang;
#X msg 795 593 \; pd dsp 1 \;;
#X obj 756 632 vsl 15 50 0.01 1.3 1 0 empty empty empty 0 -8 0 8 -241291
-1 -1 4411 0;
#X floatatom 767 686 5 0 0 0 - - -, f 5;
#X msg 756 607 0.8;
#X obj 756 705 s v;
#X text 776 656 Volume;
#N canvas 877 308 959 677 Paysage-de-fond 0;
#X obj 83 609 rectangle 5.334 4;
#X obj 83 194 alpha;
#X obj 109 139 loadbang;
#X msg 109 161 1;
#X obj 83 556 color;
#X obj 216 556 color;
#X msg 263 544 0.2 0.5 0.1 0.5;
#X floatatom 392 529 5 0 0 0 - - -, f 5;
#X obj 392 548 / 4;
#X obj 391 571 * 3;
#X floatatom 391 595 5 0 0 0 - - -, f 5;
#X floatatom 349 586 5 0 0 0 - - -, f 5;
#X obj 216 609 rectangle 5.23 3.923;
#X msg 273 503 0 0 0 0.9;
#X obj 291 342 loadbang;
#X floatatom 487 593 5 0 100 1 size - -, f 5;
#X floatatom 564 59 5 0 0 0 - - -, f 5;
#X floatatom 527 57 4 0 0 0 - - -, f 4;
#X msg 458 458 font Ubuntu-R.ttf;
#X msg 522 571 alias \$1;
#X obj 522 553 tgl 15 0 empty empty empty 0 -6 0 8 -262144 -1 -1 1
1;
#X obj 448 614 text2d;
#X msg 466 484 text ReactSons;
#X obj 479 407 loadbang;
#X msg 487 572 21;
#X msg 522 526 1;
#X obj 216 417 pix_image;
#X msg 242 379 open img/patrouille3.jpg;
#X obj 216 475 pix_texture;
#X obj 216 193 alpha;
#X obj 242 138 loadbang;
#X msg 242 160 1;
#X obj 83 51 gemhead 4;
#X msg 291 524 1 1 1 1;
#X obj 216 50 gemhead 5;
#X obj 449 56 gemhead 6;
#X obj 448 77 translateXYZ -3 -2.84 1;
#X floatatom 766 63 5 0 0 0 - - -, f 5;
#X floatatom 729 61 4 0 0 0 - - -, f 4;
#X obj 650 181 alpha;
#X obj 676 126 loadbang;
#X msg 676 148 1;
#X obj 650 81 translateXYZ 0 0 0;
#X obj 650 472 color;
#X obj 682 426 loadbang;
#X msg 682 450 0.98 0 0.24 0.23;
#X floatatom 689 596 5 0 0 0 - - -, f 5;
#X floatatom 940 64 5 0 0 0 - - -, f 5;
#X floatatom 903 62 4 0 0 0 - - -, f 4;
#X obj 824 182 alpha;
#X obj 850 127 loadbang;
#X msg 850 149 1;
#X obj 824 82 translateXYZ 0 0 0;
#X obj 824 473 color;
#X obj 856 427 loadbang;
#X floatatom 863 597 5 0 0 0 - - -, f 5;
#X floatatom 1104 67 5 0 0 0 - - -, f 5;
#X floatatom 1067 65 4 0 0 0 - - -, f 4;
#X obj 988 185 alpha;
#X obj 1014 130 loadbang;
#X msg 1014 152 1;
#X obj 988 85 translateXYZ 0 0 0;
#X obj 988 476 color;
#X obj 1020 430 loadbang;
#X floatatom 1027 600 5 0 0 0 - - -, f 5;
#X floatatom 1278 68 5 0 0 0 - - -, f 5;
#X floatatom 1241 66 4 0 0 0 - - -, f 4;
#X obj 1162 186 alpha;
#X obj 1188 131 loadbang;
#X msg 1188 153 1;
#X obj 1162 86 translateXYZ 0 0 0;
#X obj 1162 477 color;
#X obj 1194 431 loadbang;
#X floatatom 1201 601 5 0 0 0 - - -, f 5;
#X msg 856 450 0.24 0 0.91 0.23;
#X msg 1020 452 0.24 0.91 0 0.23;
#X msg 1194 453 0.91 0.91 0 0.23;
#X obj 651 60 gemhead 10;
#X obj 825 61 gemhead 9;
#X obj 989 64 gemhead 8;
#X obj 1162 64 gemhead 7;
#X obj 650 618 circle 1;
#X obj 824 619 circle 2;
#X obj 988 622 circle 3;
#X obj 1162 623 circle 4;
#X obj 1406 553 catch~ mainR;
#X obj 1373 536 catch~ mainG;
#X obj 1342 358 color;
#X obj 1342 410 separator;
#X msg 1522 461 draw line;
#X msg 1522 501 draw fill;
#X msg 1522 438 draw point;
#X msg 1522 481 draw linestrip;
#X msg 1522 521 draw tri;
#X msg 1522 543 draw tristrip;
#X msg 1521 566 draw trifan;
#X msg 1521 587 draw quad;
#X msg 1521 609 draw quadstrip;
#X floatatom 1613 436 5 0 10 0 - - -, f 5;
#X msg 1613 452 width \$1;
#X floatatom 1614 393 5 0 100 0 - - -, f 5;
#X obj 1342 618 scopeXYZ~ 1024;
#X msg 1614 410 length \$1;
#X floatatom 1406 484 5 0 0 0 - - -, f 5;
#X obj 1512 340 loadbang;
#X msg 1525 402 width 10;
#X msg 1526 382 length 100;
#X obj 1342 517 scaleXYZ 3 3 3;
#X floatatom 1361 430 5 0 0 0 - - -, f 5;
#X floatatom 1404 431 5 0 0 0 - - -, f 5;
#X floatatom 1448 430 5 0 0 0 - - -, f 5;
#X obj 1342 66 gemhead 11;
#X obj 1342 188 alpha;
#X obj 1368 133 loadbang;
#X msg 1368 155 1;
#X floatatom 1476 569 5 0 0 0 - - -, f 5;
#X obj 1405 582 osc~ 221;
#X msg 1385 324 0.91 0.01 0.01 0.1;
#X obj 1342 453 rotateXYZ 0 0 90;
#X connect 1 0 4 0;
#X connect 2 0 3 0;
#X connect 3 0 1 0;
#X connect 4 0 0 0;
#X connect 5 0 12 0;
#X connect 6 0 5 1;
#X connect 7 0 8 0;
#X connect 7 0 11 0;
#X connect 8 0 9 0;
#X connect 9 0 10 0;
#X connect 10 0 12 2;
#X connect 11 0 12 1;
#X connect 13 0 5 1;
#X connect 14 0 27 0;
#X connect 14 0 33 0;
#X connect 15 0 21 1;
#X connect 16 0 36 2;
#X connect 17 0 36 1;
#X connect 18 0 21 0;
#X connect 19 0 21 0;
#X connect 20 0 19 0;
#X connect 22 0 21 0;
#X connect 23 0 18 0;
#X connect 23 0 22 0;
#X connect 23 0 24 0;
#X connect 23 0 25 0;
#X connect 24 0 15 0;
#X connect 25 0 20 0;
#X connect 26 0 28 0;
#X connect 27 0 26 0;
#X connect 28 0 5 0;
#X connect 29 0 26 0;
#X connect 30 0 31 0;
#X connect 31 0 29 0;
#X connect 32 0 1 0;
#X connect 33 0 5 1;
#X connect 34 0 29 0;
#X connect 35 0 36 0;
#X connect 36 0 21 0;
#X connect 37 0 42 2;
#X connect 38 0 42 1;
#X connect 39 0 43 0;
#X connect 40 0 41 0;
#X connect 41 0 39 0;
#X connect 42 0 39 0;
#X connect 43 0 81 0;
#X connect 44 0 45 0;
#X connect 45 0 43 1;
#X connect 46 0 81 1;
#X connect 47 0 52 2;
#X connect 48 0 52 1;
#X connect 49 0 53 0;
#X connect 50 0 51 0;
#X connect 51 0 49 0;
#X connect 52 0 49 0;
#X connect 53 0 82 0;
#X connect 54 0 74 0;
#X connect 55 0 82 1;
#X connect 56 0 61 2;
#X connect 57 0 61 1;
#X connect 58 0 62 0;
#X connect 59 0 60 0;
#X connect 60 0 58 0;
#X connect 61 0 58 0;
#X connect 62 0 83 0;
#X connect 63 0 75 0;
#X connect 64 0 83 1;
#X connect 65 0 70 2;
#X connect 66 0 70 1;
#X connect 67 0 71 0;
#X connect 68 0 69 0;
#X connect 69 0 67 0;
#X connect 70 0 67 0;
#X connect 71 0 84 0;
#X connect 72 0 76 0;
#X connect 73 0 84 1;
#X connect 74 0 53 1;
#X connect 75 0 62 1;
#X connect 76 0 71 1;
#X connect 77 0 42 0;
#X connect 78 0 52 0;
#X connect 79 0 61 0;
#X connect 80 0 70 0;
#X connect 86 0 101 1;
#X connect 87 0 88 0;
#X connect 88 0 118 0;
#X connect 89 0 101 0;
#X connect 90 0 101 0;
#X connect 91 0 101 0;
#X connect 92 0 101 0;
#X connect 93 0 101 0;
#X connect 94 0 101 0;
#X connect 95 0 101 0;
#X connect 96 0 101 0;
#X connect 97 0 101 0;
#X connect 98 0 99 0;
#X connect 99 0 101 0;
#X connect 100 0 102 0;
#X connect 102 0 101 0;
#X connect 103 0 107 1;
#X connect 103 0 107 2;
#X connect 103 0 107 3;
#X connect 104 0 89 0;
#X connect 104 0 117 0;
#X connect 104 0 105 0;
#X connect 105 0 101 0;
#X connect 106 0 101 0;
#X connect 107 0 101 0;
#X connect 108 0 118 1;
#X connect 109 0 118 2;
#X connect 110 0 118 3;
#X connect 111 0 112 0;
#X connect 112 0 87 0;
#X connect 113 0 114 0;
#X connect 114 0 112 0;
#X connect 115 0 116 0;
#X connect 116 0 101 2;
#X connect 117 0 87 1;
#X connect 118 0 107 0;
#X restore 766 476 pd Paysage-de-fond;
#X text 224 752 les fichiers audio sont à mettre dans le répertoire
audio \, numérotés de 1 à 25.wav;
#X obj 205 55 nusmuk-audio/oscillo~-help;
#X obj 282 595 Sampler 8 1 0 0;
#X obj 153 595 Sampler 7 1 0 0;
#X obj 17 557 Sampler 1 1 0 0;
#X obj 18 632 Sampler 11 1 0 0;
#X obj 416 632 Sampler 14 1 0 0;
#X obj 152 557 Sampler 2 1 0 0;
#X obj 281 557 Sampler 3 1 0 0;
#X obj 415 557 Sampler 4 1 0 0;
#X obj 549 557 Sampler 5 1 0 0;
#X obj 18 595 Sampler 6 1 0 0;
#X obj 416 595 Sampler 9 1 0 0;
#X obj 550 595 Sampler 10 1 0 0;
#X obj 153 632 Sampler 12 1 0 0;
#X obj 282 632 Sampler 13 1 0 0;
#X obj 550 632 Sampler 15 1 0 0;
#X obj 19 670 Sampler 16 1 0 0;
#X obj 154 670 Sampler 17 1 0 0;
#X obj 283 670 Sampler 18 1 0 0;
#X obj 417 670 Sampler 19 1 0 0;
#X obj 551 670 Sampler 20 1 0 0;
#X obj 21 709 Sampler 21 1 0 0;
#X obj 156 709 Sampler 22 1 0 0;
#X obj 285 709 Sampler 23 1 0 0;
#X obj 419 709 Sampler 24 1 0 0;
#X obj 553 709 Sampler 25 1 0 0;
#X floatatom 561 149 5 0 0 0 - - -, f 5;
#X obj 470 163 pix_contrast;
#X obj 470 194 pix_gain;
#X floatatom 560 180 5 0 0 0 - - -, f 5;
#X obj 628 134 hsl 100 15 0 5 0 0 empty empty Contraste -2 -8 0 10
-99865 -262144 -262144 1980 1;
#X obj 628 165 hsl 100 15 0 5 0 0 empty empty Gain -2 -8 0 10 -257985
-258113 -262144 1980 1;
#X msg 760 117 1;
#X msg 822 148 1;
#X connect 1 0 12 0;
#X connect 6 0 81 0;
#X connect 7 0 2 0;
#X connect 7 1 3 0;
#X connect 7 2 4 0;
#X connect 7 3 5 0;
#X connect 8 0 9 0;
#X connect 9 0 14 0;
#X connect 10 0 6 0;
#X connect 11 0 10 0;
#X connect 14 0 17 0;
#X connect 14 1 7 0;
#X connect 14 1 13 0;
#X connect 15 0 6 0;
#X connect 16 0 6 0;
#X connect 17 0 1 0;
#X connect 18 0 17 1;
#X connect 19 0 20 0;
#X connect 20 0 16 0;
#X connect 20 1 86 0;
#X connect 20 1 87 0;
#X connect 20 2 21 0;
#X connect 21 0 6 0;
#X connect 23 0 25 0;
#X connect 24 0 25 0;
#X connect 26 0 25 0;
#X connect 27 0 25 0;
#X connect 28 0 25 0;
#X connect 30 0 25 0;
#X connect 32 0 25 0;
#X connect 33 0 25 0;
#X connect 34 0 25 0;
#X connect 35 0 37 0;
#X connect 36 0 40 0;
#X connect 37 0 39 0;
#X connect 37 1 38 0;
#X connect 38 0 25 0;
#X connect 39 0 25 0;
#X connect 40 0 41 0;
#X connect 40 1 42 0;
#X connect 41 0 25 0;
#X connect 42 0 25 0;
#X connect 45 0 46 0;
#X connect 45 0 49 0;
#X connect 47 0 48 0;
#X connect 47 0 50 0;
#X connect 49 0 47 0;
#X connect 80 0 81 1;
#X connect 81 0 82 0;
#X connect 82 0 8 0;
#X connect 83 0 82 1;
#X connect 84 0 80 0;
#X connect 85 0 83 0;
#X connect 86 0 84 0;
#X connect 87 0 85 0;
