#N canvas 278 145 1579 848 10;
#X obj 28 367 dac~;
#X msg 112 140 play;
#X msg 193 139 pause;
#X msg 348 121 speed \$1;
#X floatatom 348 98 5 0 0 0 - - -, f 5;
#X msg 390 75 1;
#X msg 12 126 open \$1;
#X obj 12 98 openpanel;
#X obj 12 66 bng 25 250 50 0 empty empty empty 17 7 0 10 -4032 -1 -1
;
#X msg 152 139 stop;
#X floatatom 345 173 16 0 0 0 - - -, f 16;
#X msg 345 193 pcm_seek \$1;
#X obj 348 150 hsl 128 15 0 7.368e+06 0 0 empty empty empty -2 -8 0
10 -260818 -1 -1 0 1;
#X msg 348 74 0.21;
#X floatatom 155 477 5 0 0 0 - - -, f 5;
#X floatatom 201 429 5 0 0 0 - - -, f 5;
#X floatatom 110 507 5 0 0 0 - - -, f 5;
#X msg 722 253 loop \$1;
#X obj 722 233 tgl 15 0 empty empty empty 17 7 0 10 -262144 -1 -1 1
1;
#X floatatom 246 392 5 0 0 0 - - -, f 5;
#X obj 375 329 bng 15 250 50 0 empty empty empty 17 7 0 10 -262144
-1 -1;
#X obj 110 303 route ready samplerate length cache float bang;
#X floatatom 292 360 5 0 0 0 - - -, f 5;
#X text 400 330 bang: end of file.;
#X obj 49 294 r v;
#X floatatom 494 176 16 0 0 0 - - -, f 16;
#X obj 497 153 hsl 128 15 0 500 0 0 empty empty empty -2 -8 0 10 -260818
-1 -1 0 1;
#X msg 494 196 time_seek \$1;
#X msg 329 242 tick 100;
#X text 404 231 send cache \, length output every X ticks;
#X text 402 244 "tick 1" sends out every single dsp cycle;
#X text 720 214 loop on/off;
#X obj 29 269 readanysf~ 2;
#X obj 690 -4 loadbang;
#X obj 690 23 t b b b;
#X obj 690 57 \$1;
#X obj 722 57 \$2;
#X obj 950 153 r fiducial;
#X obj 28 332 *~ 0.8;
#X obj 79 332 *~ 0.8;
#X obj 836 299 gemhead 20;
#X msg 757 645 draw line;
#X msg 757 666 draw fill;
#X msg 757 688 draw point;
#X floatatom 902 625 5 0 0 2 size - -, f 5;
#X obj 836 464 translateXYZ;
#X obj 950 327 maxlib/scale 0 1 -5.334 5.334;
#X obj 990 358 maxlib/scale 0 1 4 -4;
#X obj 836 574 alpha;
#X obj 813 559 tgl 15 0 empty empty empty 17 7 0 10 -262144 -1 -1 1
1;
#X obj 873 552 tgl 15 0 empty empty empty 17 7 0 10 -262144 -1 -1 0
1;
#X obj 752 542 loadbang;
#X obj 950 267 route \$1;
#X obj 950 296 unpack f f f;
#X obj 836 382 translateXYZ \$3 \$4 0;
#X floatatom 1099 155 5 0 0 0 - - -, f 5;
#X obj 1099 183 moses 6;
#X obj 1145 207 moses 11;
#X obj 1198 234 moses 16;
#X obj 1099 208 once;
#X obj 1145 231 once;
#X obj 1198 259 once;
#X obj 1251 259 once;
#X msg 1197 330 0.24 0.91 0 0.7;
#X msg 1144 304 0.24 0 0.91 0.7;
#X msg 1250 355 0.91 0.91 0 0.7;
#X obj 12 415 print fffile;
#X obj 152 98 t b;
#X text 65 74 A Relier pour STOP qd pas de fiducial;
#N canvas 55 429 458 448 fidu_or-not 0;
#X obj 88 390 outlet;
#X obj 284 392 outlet;
#X obj 174 137 once;
#X obj 174 201 metro 40;
#X obj 174 181 tgl 15 0 empty empty empty 17 7 0 10 -262144 -1 -1 1
1;
#X floatatom 205 245 5 0 0 0 - - -, f 5;
#X msg 174 159 1;
#X obj 241 122 bng 15 250 50 0 empty empty empty 17 7 0 10 -262144
-1 -1;
#X obj 174 222 f;
#X obj 210 222 + 1;
#X obj 174 270 sel 1;
#X obj 174 293 t b b b;
#X msg 219 164 0;
#X msg 206 117 0;
#X obj 174 244 > 4;
#X obj 174 97 t b b;
#X obj 174 47 inlet;
#X connect 2 0 6 0;
#X connect 2 0 0 0;
#X connect 3 0 8 0;
#X connect 4 0 3 0;
#X connect 6 0 4 0;
#X connect 7 0 2 1;
#X connect 8 0 5 0;
#X connect 8 0 9 0;
#X connect 8 0 14 0;
#X connect 9 0 8 1;
#X connect 10 0 11 0;
#X connect 11 0 2 1;
#X connect 11 1 1 0;
#X connect 11 2 12 0;
#X connect 12 0 4 0;
#X connect 13 0 8 1;
#X connect 14 0 10 0;
#X connect 15 0 2 0;
#X connect 15 1 13 0;
#X connect 16 0 15 0;
#X restore 650 349 pd fidu_or-not;
#X msg 869 270 0;
#X msg 836 270 1;
#X obj 836 596 separator;
#X obj 1201 590 separator;
#X obj 1195 791 cnv 15 110 30 empty empty empty 20 12 0 14 -24198 -66577
0;
#X msg 996 727 draw line;
#X msg 996 767 draw fill;
#X msg 996 704 draw point;
#X msg 996 747 draw linestrip;
#X msg 996 787 draw tri;
#X msg 996 809 draw tristrip;
#X msg 995 832 draw trifan;
#X msg 995 853 draw quad;
#X msg 995 875 draw quadstrip;
#X floatatom 1087 702 5 0 10 0 - - -, f 5;
#X msg 1087 718 width \$1;
#X floatatom 1088 659 5 0 100 0 - - -, f 5;
#X obj 1201 798 scopeXYZ~ 1024;
#X msg 1088 676 length \$1;
#X floatatom 1265 664 5 0 0 0 - - -, f 5;
#X obj 1201 633 rotateXYZ;
#X msg 1099 281 0.98 0 0.24 0.7;
#X obj 836 656 circle 0.5;
#X obj 946 600 loadbang;
#X text 155 506 ready: status for when a file is loaded and ready;
#X text 287 391 cache: percentage (0.0->1.0) of;
#X text 328 404 cache being used.;
#X text 334 359 float: position of file in seconds;
#X text 375 372 relative to the file's samplerate;
#X text 240 428 length: total duration of file in seconds;
#X text 213 478 The samplerate of the file being played.;
#X msg 999 668 width 10;
#X msg 1000 648 length 100;
#X floatatom 1220 610 5 0 0 0 - - -, f 5;
#X floatatom 1263 611 5 0 0 0 - - -, f 5;
#X floatatom 1307 610 5 0 0 0 - - -, f 5;
#X obj 29 593 throw~ mainG;
#X obj 80 568 throw~ mainR;
#X obj 1263 758 osc~ 221;
#X floatatom 1311 731 5 0 0 0 - - -, f 5;
#X obj 1201 697 scaleXYZ 1 1 1;
#X obj 690 84 makefilename audio/%d.wav;
#X floatatom 1051 269 5 0 0 0 - - -, f 5;
#X obj 1029 385 maxlib/scale 0 6.3 0 6.3;
#X obj 1031 436 maxlib/scale 0 6.3 0 360;
#X obj 1262 535 + 30;
#X floatatom 578 785 5 0 100 1 size - -, f 5;
#X msg 549 702 font Ubuntu-R.ttf;
#X msg 613 763 alias \$1;
#X obj 613 745 tgl 15 0 empty empty empty 0 -6 0 8 -262144 -1 -1 1
1;
#X obj 539 806 text2d;
#X obj 572 671 loadbang;
#X msg 578 764 21;
#X msg 613 722 1;
#X msg 550 725 text \$1;
#X obj 418 577 * 100;
#X obj 431 612 int;
#X obj 836 527 color;
#X obj 1250 395 s \$0-color;
#X obj 868 502 r \$0-color;
#X obj 539 590 separator;
#X floatatom 646 660 5 0 0 0 - - -, f 5;
#X obj 1201 653 separator;
#X floatatom 662 614 5 0 0 0 - - -, f 5;
#X obj 523 610 rotateXYZ 0 0 90;
#X obj 538 645 translateXYZ 0 0.8 0;
#X connect 1 0 32 0;
#X connect 2 0 32 0;
#X connect 3 0 32 0;
#X connect 4 0 3 0;
#X connect 4 0 125 0;
#X connect 5 0 4 0;
#X connect 6 0 32 0;
#X connect 6 0 66 0;
#X connect 7 0 6 0;
#X connect 8 0 7 0;
#X connect 9 0 32 0;
#X connect 10 0 11 0;
#X connect 11 0 32 0;
#X connect 12 0 10 0;
#X connect 13 0 4 0;
#X connect 17 0 32 0;
#X connect 18 0 17 0;
#X connect 21 0 16 0;
#X connect 21 1 14 0;
#X connect 21 2 15 0;
#X connect 21 3 19 0;
#X connect 21 4 22 0;
#X connect 21 5 20 0;
#X connect 24 0 38 1;
#X connect 24 0 39 1;
#X connect 25 0 27 0;
#X connect 26 0 25 0;
#X connect 27 0 32 0;
#X connect 28 0 32 0;
#X connect 32 0 38 0;
#X connect 32 1 39 0;
#X connect 32 2 21 0;
#X connect 33 0 34 0;
#X connect 34 0 35 0;
#X connect 34 1 36 0;
#X connect 34 2 70 0;
#X connect 35 0 55 0;
#X connect 35 0 111 0;
#X connect 36 0 18 0;
#X connect 37 0 52 0;
#X connect 38 0 0 0;
#X connect 38 0 87 1;
#X connect 38 0 106 0;
#X connect 39 0 0 1;
#X connect 39 0 107 0;
#X connect 40 0 54 0;
#X connect 41 0 92 0;
#X connect 42 0 92 0;
#X connect 43 0 92 0;
#X connect 44 0 92 1;
#X connect 45 0 127 0;
#X connect 46 0 45 1;
#X connect 47 0 45 2;
#X connect 48 0 72 0;
#X connect 48 0 73 0;
#X connect 49 0 48 0;
#X connect 50 0 48 1;
#X connect 51 0 49 0;
#X connect 52 0 53 0;
#X connect 53 0 46 0;
#X connect 53 0 69 0;
#X connect 53 1 47 0;
#X connect 53 2 112 0;
#X connect 53 2 113 0;
#X connect 53 2 114 0;
#X connect 54 0 45 0;
#X connect 55 0 56 0;
#X connect 56 0 59 0;
#X connect 56 1 57 0;
#X connect 57 0 60 0;
#X connect 57 1 58 0;
#X connect 58 0 61 0;
#X connect 58 1 62 0;
#X connect 59 0 91 0;
#X connect 60 0 64 0;
#X connect 61 0 63 0;
#X connect 62 0 65 0;
#X connect 63 0 128 0;
#X connect 64 0 128 0;
#X connect 65 0 128 0;
#X connect 67 0 9 0;
#X connect 69 0 1 0;
#X connect 69 0 71 0;
#X connect 69 1 9 0;
#X connect 69 1 70 0;
#X connect 70 0 40 0;
#X connect 71 0 40 0;
#X connect 72 0 92 0;
#X connect 73 0 90 0;
#X connect 75 0 87 0;
#X connect 76 0 87 0;
#X connect 77 0 87 0;
#X connect 78 0 87 0;
#X connect 79 0 87 0;
#X connect 80 0 87 0;
#X connect 81 0 87 0;
#X connect 82 0 87 0;
#X connect 83 0 87 0;
#X connect 84 0 85 0;
#X connect 85 0 87 0;
#X connect 86 0 88 0;
#X connect 88 0 87 0;
#X connect 89 0 110 1;
#X connect 89 0 110 2;
#X connect 89 0 110 3;
#X connect 90 0 132 0;
#X connect 90 0 130 0;
#X connect 91 0 128 0;
#X connect 93 0 75 0;
#X connect 93 0 101 0;
#X connect 101 0 87 0;
#X connect 102 0 87 0;
#X connect 103 0 90 1;
#X connect 104 0 90 2;
#X connect 105 0 90 3;
#X connect 108 0 87 2;
#X connect 109 0 108 1;
#X connect 110 0 87 0;
#X connect 111 0 6 0;
#X connect 113 0 4 0;
#X connect 114 0 115 0;
#X connect 115 0 90 3;
#X connect 116 0 120 1;
#X connect 117 0 120 0;
#X connect 118 0 120 0;
#X connect 119 0 118 0;
#X connect 121 0 117 0;
#X connect 121 0 124 0;
#X connect 121 0 122 0;
#X connect 121 0 123 0;
#X connect 122 0 116 0;
#X connect 123 0 119 0;
#X connect 124 0 120 0;
#X connect 125 0 126 0;
#X connect 126 0 124 0;
#X connect 127 0 48 0;
#X connect 129 0 127 1;
#X connect 130 0 134 0;
#X connect 131 0 135 2;
#X connect 132 0 110 0;
#X connect 133 0 134 3;
#X connect 134 0 135 0;
#X connect 135 0 120 0;
